<svg xmlns="http://www.w3.org/2000/svg" width="171" height="36" viewBox="0 0 171 36">
  <g id="Group_724" data-name="Group 724" transform="translate(-182 -22)">
    <text id="Shortly" transform="translate(182 50)" fill="#255df4" font-size="36" font-family="Helvetica-Bold, Helvetica" font-weight="700"><tspan x="0" y="0">Shortly</tspan></text>
    <g id="Group_723" data-name="Group 723" transform="translate(310.925 26.785)">
      <g id="Path_182" data-name="Path 182" fill="none">
        <path d="M13.875,0A13.875,13.875,0,1,1,0,13.875,13.875,13.875,0,0,1,13.875,0Z" stroke="none"/>
        <path d="M 13.87525463104248 4.999994277954102 C 8.981424331665039 4.999994277954102 4.999994277954102 8.981424331665039 4.999994277954102 13.87525463104248 C 4.999994277954102 18.76908493041992 8.981424331665039 22.75050354003906 13.87525463104248 22.75050354003906 C 18.76908493041992 22.75050354003906 22.75050354003906 18.76908493041992 22.75050354003906 13.87525463104248 C 22.75050354003906 8.981424331665039 18.76908493041992 4.999994277954102 13.87525463104248 4.999994277954102 M 13.87525463104248 -5.7220458984375e-06 C 21.53834533691406 -5.7220458984375e-06 27.7505054473877 6.212163925170898 27.7505054473877 13.87525463104248 C 27.7505054473877 21.53834533691406 21.53834533691406 27.7505054473877 13.87525463104248 27.7505054473877 C 6.212163925170898 27.7505054473877 -5.7220458984375e-06 21.53834533691406 -5.7220458984375e-06 13.87525463104248 C -5.7220458984375e-06 6.212163925170898 6.212163925170898 -5.7220458984375e-06 13.87525463104248 -5.7220458984375e-06 Z" stroke="none" fill="#25ccf4"/>
      </g>
      <g id="Ellipse_2" data-name="Ellipse 2" transform="translate(14.075 0.215)" fill="none" stroke="#255df4" stroke-width="5">
        <circle cx="14" cy="14" r="14" stroke="none"/>
        <circle cx="14" cy="14" r="11.5" fill="none"/>
      </g>
    </g>
  </g>
</svg>
